<?xml version="1.0" encoding="UTF-8"?>
<svg width="32px" height="40px" viewBox="0 0 32 40" version="1.1" xmlns="http://www.w3.org/2000/svg" xmlns:xlink="http://www.w3.org/1999/xlink">
    <title>pdf-svgrepo-com</title>
    <g id="Training-Team" stroke="none" stroke-width="1" fill="none" fill-rule="evenodd">
        <g id="Induction-Kit" transform="translate(-100.000000, -112.000000)" fill-rule="nonzero">
            <g id="Group-5" transform="translate(80.000000, 92.000000)">
                <g id="pdf-svgrepo-com" transform="translate(20.000000, 20.000000)">
                    <polygon id="Path" fill="#FB3449" points="24.4213356 0 0 0 0 40 31.0204082 40 31.0204082 6.6658311"></polygon>
                    <path d="M25.9911568,19.7171264 C25.5161777,18.8558384 23.874938,18.5852351 23.121986,18.4634636 C22.5284903,18.367426 21.9226084,18.3387739 21.3223329,18.3393044 C20.8510045,18.3361209 20.3865864,18.3597323 19.9281657,18.3862621 C19.7591916,18.3978025 19.5919124,18.4126592 19.4247635,18.4273832 C19.2534425,18.246981 19.0878583,18.0606095 18.9276197,17.8699934 C17.9080379,16.6420645 17.0848104,15.2495185 16.4139986,13.802454 C16.5920995,13.1032627 16.7346062,12.3735623 16.8206579,11.6157403 C16.9777674,10.2326125 17.0317452,8.65634809 16.5223455,7.33768747 C16.3464611,6.88256982 15.8774796,6.32849624 15.3363972,6.60440552 C14.714348,6.92170118 14.5393763,7.82066135 14.488658,8.45790565 C14.4478487,8.97298051 14.4764022,9.48938186 14.5614108,9.99583455 C14.647984,10.5057361 14.7873616,10.9899038 14.9391254,11.4734083 C15.0807195,11.9167202 15.2367859,12.3565833 15.4069335,12.7923342 C15.2989778,13.1353637 15.1843726,13.472424 15.0640307,13.8008622 C14.7834501,14.5493987 14.4800529,15.2605284 14.1882595,15.9445977 C14.0344096,16.2837804 13.8838192,16.6158 13.7364883,16.9403914 C13.2702448,17.9823468 12.7641046,19.0052009 12.1960333,19.9939642 C10.8709682,20.4695097 9.68189075,21.0207977 8.69438281,21.6686539 C8.1646436,22.0168567 7.69670512,22.3950381 7.30699543,22.8098306 C6.93905941,23.2014095 6.56512585,23.7095866 6.53240014,24.2721497 C6.51401638,24.5897107 6.63761785,24.8978536 6.89329557,25.0862147 C7.24493393,25.3535018 7.71091668,25.3357269 8.11887976,25.2487094 C9.45528806,24.9635147 10.4815192,23.7947471 11.3554651,22.8096979 C11.9574355,22.1311999 12.6425892,21.2696466 13.3592952,20.2276912 C13.3608598,20.2253035 13.3624244,20.2229158 13.3641193,20.2205282 C14.5933542,19.832796 15.9311967,19.5054191 17.351049,19.2647943 C17.999696,19.1553592 18.6655532,19.0658213 19.3447094,19.0029458 C19.8222961,19.4580635 20.3383453,19.872458 20.9013317,20.2185384 C21.339804,20.4929886 21.8061779,20.7247258 22.2943255,20.8975671 C22.7879491,21.0616535 23.2845715,21.1956287 23.7973611,21.2803912 C24.0562983,21.3180634 24.3211028,21.3351751 24.591644,21.3248285 C25.1954397,21.301615 26.0620842,21.0660309 26.1189305,20.3206779 C26.1364016,20.0925222 26.0880301,19.8924879 25.9911568,19.7171264 Z M11.5359128,21.0847344 C11.2531158,21.530434 10.9803581,21.9312983 10.7233765,22.2840112 C10.094026,23.1552478 9.37523394,24.1900402 8.33453043,24.5769764 C8.13687238,24.6504638 7.87663131,24.7263388 7.60230906,24.7098904 C7.35797451,24.695299 7.11702988,24.5855986 7.12811229,24.3033222 C7.1335883,24.1555515 7.20464611,23.9670577 7.31364487,23.7818802 C7.43294376,23.578795 7.58066577,23.3925563 7.74064362,23.2213068 C8.08341605,22.8549311 8.51680348,22.4998306 9.01538156,22.1709945 C9.78006787,21.6662662 10.6929977,21.2119445 11.7106237,20.8065701 C11.6520825,20.9007506 11.5936717,20.9944006 11.5359128,21.0847344 Z M15.0851525,9.90775582 C15.0066629,9.44162833 14.9947982,8.96900105 15.0430393,8.51454664 C15.0670295,8.28731944 15.1125325,8.06553083 15.1783751,7.85767033 C15.2341783,7.68124757 15.3546506,7.25066993 15.5468326,7.19535543 C15.8636592,7.10409313 15.961054,7.79612134 15.9969089,7.9919108 C16.201086,9.1056292 16.0211598,10.34417 15.7761733,11.4366646 C15.7371893,11.6104344 15.6937723,11.7814186 15.6493123,11.9517395 C15.5734304,11.7393689 15.5010688,11.5263351 15.4344439,11.3122401 C15.2910245,10.8446535 15.1598609,10.3716283 15.0851525,9.90775582 Z M17.2603036,18.6997109 C16.0699224,18.896031 14.9375608,19.1532368 13.8731279,19.4568697 C14.0012927,19.4203913 14.5869655,18.291153 14.7176076,18.0567627 C15.3331377,16.9537889 15.8366702,15.7961638 16.1984783,14.581765 C16.8373467,15.8672635 17.6127243,17.0970495 18.56529,18.1916665 C18.6530366,18.2910203 18.7422174,18.3891804 18.8329628,18.4861465 C18.2991818,18.5446446 17.7738756,18.615877 17.2603036,18.6997109 Z M25.3105664,20.2509047 C25.2670191,20.4903356 24.7643992,20.627229 24.5298432,20.6649013 C23.8367362,20.7757956 23.1034718,20.6870536 22.4400918,20.460357 C21.9849307,20.3048927 21.5459369,20.0931854 21.1288471,19.8384999 C20.7142346,19.5836818 20.3263502,19.2838958 19.9637598,18.9533352 C20.4108373,18.9260096 20.8633908,18.908102 21.3181607,18.9168568 C21.7729307,18.9214995 22.231221,18.9448457 22.6839048,19.0049356 C23.5328174,19.1012385 24.4840794,19.3977083 25.1522835,19.958149 C25.2838383,20.0686454 25.325821,20.1662748 25.3105664,20.2509047 Z" id="Shape" fill="#FFFFFF"></path>
                    <polygon id="Path" fill="#FB3449" points="25.3061224 3.26530612 0 3.26530612 0 0 24.2903596 0"></polygon>
                    <g id="Group" transform="translate(8.163265, 29.387755)" fill="#FFFFFF">
                        <path d="M4.49494611,2.07709921 C4.49494611,2.80680621 4.29097659,3.37031805 3.88277935,3.76777085 C3.47458212,4.16535976 2.8949472,4.36408616 2.14361642,4.36408616 L1.67332467,4.36408616 L1.67332467,6.53061224 L0,6.53061224 L0,0 L2.14374552,0 C2.92605901,0 3.5135687,0.180214898 3.90614548,0.540508581 C4.29872227,0.900802264 4.49494611,1.41299914 4.49494611,2.07709921 Z M1.67345376,2.92576982 L1.97850438,2.92576982 C2.22985164,2.92576982 2.42969014,2.85145159 2.57801987,2.70240679 C2.72634961,2.55349811 2.80044993,2.34796601 2.80044993,2.08594662 C2.80044993,1.64520958 2.56885415,1.42484106 2.1056626,1.42484106 L1.67345376,1.42484106 C1.67345376,1.42484106 1.67345376,2.92576982 1.67345376,2.92576982 Z" id="Shape"></path>
                        <path d="M10.73977,3.12681016 C10.73977,4.21667473 10.4551163,5.05649793 9.88606719,5.64614366 C9.31701804,6.23578938 8.51688949,6.53061224 7.48606882,6.53061224 L5.48213279,6.53061224 L5.48213279,0 L7.62587831,0 C8.6200361,0 9.38750371,0.26800841 9.92841023,0.80402523 C10.4691877,1.34004205 10.73977,2.11439444 10.73977,3.12681016 Z M9.00280169,3.18942258 C9.00280169,2.59079334 8.89048936,2.1471979 8.66599379,1.85822794 C8.44149822,1.56939409 8.10043019,1.42497717 7.64278971,1.42497717 L7.15571565,1.42497717 L7.15571565,5.08331238 L7.52854096,5.08331238 C8.03704472,5.08331238 8.40974094,4.92773411 8.64701688,4.61644146 C8.88416372,4.30542104 9.00280169,3.82970271 9.00280169,3.18942258 Z" id="Shape"></path>
                        <polygon id="Path" points="13.4977478 6.53061224 11.8497257 6.53061224 11.8497257 0 15.5102041 0 15.5102041 1.41599365 13.4977478 1.41599365 13.4977478 2.66225317 15.3533541 2.66225317 15.3533541 4.07824682 13.4977478 4.07824682"></polygon>
                    </g>
                    <polygon id="Path" fill="#FF9393" points="24.4897959 6.53061224 31.0204082 6.53061224 24.4897959 0"></polygon>
                </g>
            </g>
        </g>
    </g>
</svg>