<?xml version="1.0" encoding="UTF-8"?>
<svg width="25px" height="24px" viewBox="0 0 25 24" version="1.1" xmlns="http://www.w3.org/2000/svg" xmlns:xlink="http://www.w3.org/1999/xlink">
    <title>Settings</title>
    <defs>
        <rect id="path-1" x="0" y="0" width="116" height="40" rx="10"></rect>
        <filter x="-7.8%" y="-22.5%" width="115.5%" height="145.0%" filterUnits="objectBoundingBox" id="filter-2">
            <feOffset dx="0" dy="0" in="SourceAlpha" result="shadowOffsetOuter1"></feOffset>
            <feGaussianBlur stdDeviation="3" in="shadowOffsetOuter1" result="shadowBlurOuter1"></feGaussianBlur>
            <feColorMatrix values="0 0 0 0 0.0509803922   0 0 0 0 0.0470588235   0 0 0 0 0.11372549  0 0 0 0.05 0" type="matrix" in="shadowBlurOuter1"></feColorMatrix>
        </filter>
    </defs>
    <g id="Final---Timesheet" stroke="none" stroke-width="1" fill="none" fill-rule="evenodd">
        <g id="Timesheet----User" transform="translate(-844.000000, -142.000000)">
            <rect fill="#5D3E91" opacity="0.06" x="0" y="0" width="1440" height="900"></rect>
            <g id="Group-9" transform="translate(349.000000, 134.000000)">
                <g id="filter-copy" transform="translate(481.000000, 0.000000)">
                    <g id="Group-10-Copy" transform="translate(12.000000, 8.000000)">
                        <g id="appointment" transform="translate(2.964706, 0.000000)" fill="#ffffff" >
                            <path d="M14,2 C18.418278,2 22,5.581722 22,10 L22,10 L22,14 C22,18.418278 18.418278,22 14,22 L14,22 L10,22 C5.581722,22 2,18.418278 2,14 L2,14 L2,10 C2,5.581722 5.581722,2 10,2 L10,2 Z M14,4 L10,4 C6.6862915,4 4,6.6862915 4,10 L4,10 L4,14 C4,17.3137085 6.6862915,20 10,20 L10,20 L14,20 C17.3137085,20 20,17.3137085 20,14 L20,14 L20,10 C20,6.6862915 17.3137085,4 14,4 L14,4 Z M8.61289944,7.20970461 L8.70710678,7.29289322 L12.7071068,11.2928932 C12.8633871,11.4491735 12.9625983,11.6518549 12.9913276,11.868556 L13,12 L13,17 C13,17.5522847 12.5522847,18 12,18 C11.4871642,18 11.0644928,17.6139598 11.0067277,17.1166211 L11,17 L11,12.415 L7.29289322,8.70710678 C6.93240926,8.34662282 6.90467972,7.77939176 7.20970461,7.38710056 L7.29289322,7.29289322 C7.65337718,6.93240926 8.22060824,6.90467972 8.61289944,7.20970461 Z" id="Combined-Shape" />
                        </g>
                    </g>
                </g>
            </g>
        </g>
    </g>
</svg>
