<?xml version="1.0" encoding="UTF-8"?>
<svg width="25px" height="24px" viewBox="0 0 25 24" version="1.1" xmlns="http://www.w3.org/2000/svg" xmlns:xlink="http://www.w3.org/1999/xlink">
    <title>Settings</title>
    <defs>
        <rect id="path-1" x="0" y="0" width="116" height="40" rx="10"></rect>
        <filter x="-7.8%" y="-22.5%" width="115.5%" height="145.0%" filterUnits="objectBoundingBox" id="filter-2">
            <feOffset dx="0" dy="0" in="SourceAlpha" result="shadowOffsetOuter1"></feOffset>
            <feGaussianBlur stdDeviation="3" in="shadowOffsetOuter1" result="shadowBlurOuter1"></feGaussianBlur>
            <feColorMatrix values="0 0 0 0 0.0509803922   0 0 0 0 0.0470588235   0 0 0 0 0.11372549  0 0 0 0.05 0" type="matrix" in="shadowBlurOuter1"></feColorMatrix>
        </filter>
    </defs>
    <g id="Final---Timesheet" stroke="none" stroke-width="1" fill="none" fill-rule="evenodd">
        <g id="Timesheet----User" transform="translate(-844.000000, -142.000000)">
            <rect fill="#5D3E91" opacity="0.06" x="0" y="0" width="1440" height="900"></rect>
            <g id="Group-9" transform="translate(349.000000, 134.000000)">
                <g id="filter-copy" transform="translate(481.000000, 0.000000)">
                    <g id="Group-10-Copy" transform="translate(12.000000, 8.000000)">
                        <g id="appointment" transform="translate(2.964706, 0.000000)" fill="#ffffff" >
                            <path d="M16.5,3 C16.8211318,3 17.1200696,3.15396486 17.3069314,3.40932744 L17.3715755,3.50973876 L21.8715755,11.5097388 C22.0214041,11.7761006 22.0401326,12.0939751 21.9277612,12.3732151 L21.8715755,12.4902612 L17.3715755,20.4902612 C17.214137,20.7701519 16.9333874,20.9552157 16.6192085,20.9928856 L16.5,21 L7.5,21 C7.17886817,21 6.87993042,20.8460351 6.69306855,20.5906726 L6.62842446,20.4902612 L2.12842446,12.4902612 C1.97859592,12.2238994 1.95986736,11.9060249 2.07223876,11.6267849 L2.12842446,11.5097388 L6.62842446,3.50973876 C6.78586295,3.22984811 7.06661255,3.04478429 7.38079146,3.00711443 L7.5,3 L16.5,3 Z M15.915,5 L8.084,5 L4.147,12 L8.085,19 L15.914,19 L19.852,12 L15.915,5 Z M12,8 C14.209139,8 16,9.790861 16,12 C16,14.209139 14.209139,16 12,16 C9.790861,16 8,14.209139 8,12 C8,9.790861 9.790861,8 12,8 Z M12,10 C10.8954305,10 10,10.8954305 10,12 C10,13.1045695 10.8954305,14 12,14 C13.1045695,14 14,13.1045695 14,12 C14,10.8954305 13.1045695,10 12,10 Z" id="Combined-Shape"></path>
                        </g>
                    </g>
                </g>
            </g>
        </g>
    </g>
</svg>
