<?xml version="1.0" encoding="UTF-8"?>
<svg width="24px" height="24px" viewBox="0 0 24 24" version="1.1" xmlns="http://www.w3.org/2000/svg" xmlns:xlink="http://www.w3.org/1999/xlink">
    <title>TimeSheet</title>
    <g id="Symbols" stroke="none" stroke-width="1" fill="none" fill-rule="evenodd">
        <g id="Sidenav" transform="translate(-38.000000, -121.000000)">
            <g id="Nav-link" transform="translate(0.000000, 90.000000)">
                <g id="Nav-link-content" transform="translate(14.000000, 31.000000)">
                    <g id="icon/time" transform="translate(24.000000, 0.000000)">
                        <rect id="outer-bg" fill="#2248C3" opacity="0" x="0" y="0" width="24" height="24"></rect>
                        <path d="M12,2 C17.5228475,2 22,6.4771525 22,12 C22,17.5228475 17.5228475,22 12,22 C6.4771525,22 2,17.5228475 2,12 C2,6.4771525 6.4771525,2 12,2 Z M12,3.5 C7.30557963,3.5 3.5,7.30557963 3.5,12 C3.5,16.6944204 7.30557963,20.5 12,20.5 C16.6944204,20.5 20.5,16.6944204 20.5,12 C20.5,7.30557963 16.6944204,3.5 12,3.5 Z M12,6 C12.5128358,6 12.9355072,6.38604019 12.9932723,6.88337887 L13,7 L13,11 L15,11 C15.5128358,11 15.9355072,11.3860402 15.9932723,11.8833789 L16,12 C16,12.5128358 15.6139598,12.9355072 15.1166211,12.9932723 L15,13 L12,13 C11.4871642,13 11.0644928,12.6139598 11.0067277,12.1166211 L11,12 L11,7 C11,6.44771525 11.4477153,6 12,6 Z" id="time" fill="#FFFFFF"></path>
                    </g>
                </g>
            </g>
        </g>
    </g>
</svg>
