<?xml version="1.0" encoding="UTF-8"?>
<svg width="50px" height="50px" viewBox="0 0 50 50" version="1.1" xmlns="http://www.w3.org/2000/svg" xmlns:xlink="http://www.w3.org/1999/xlink">
    <title>User Profile</title>
    <g id="Symbols" stroke="none" stroke-width="1" fill="none" fill-rule="evenodd">
        <g id="user">
            <rect id="Rectangle" fill="#22C28F" opacity="0" x="5" y="5" width="40" height="40" rx="10"></rect>
            <circle id="Oval" fill="#22C38F" opacity="0.100000001" cx="25" cy="25" r="25"></circle>
            <path d="M25.5002546,26.080113 C30.5781998,26.080113 35.0793613,29.0353713 36.9152208,33.446891 C37.1561179,34.0257601 36.8661037,34.6838598 36.267456,34.916798 C35.6688083,35.1497361 34.9882228,34.8693037 34.7473257,34.2904346 C33.2667058,30.7325458 29.6222175,28.3397402 25.5002546,28.3397402 C21.377843,28.3397402 17.7330394,30.7330673 16.2527302,34.2915242 C16.0119097,34.8704231 15.3313613,35.1509397 14.7326828,34.9180757 C14.1340042,34.6852116 13.843903,34.0271477 14.0847235,33.4482489 C15.9202009,29.036017 20.4217543,26.080113 25.5002546,26.080113 Z M25.5,15 C28.0359132,15 30.091677,16.9878438 30.091677,19.4399733 C30.091677,21.8921029 28.0359132,23.8799466 25.5,23.8799466 C22.9640869,23.8799466 20.908323,21.8921029 20.908323,19.4399733 C20.908323,16.9878438 22.9640869,15 25.5,15 Z M25.5,17.2199867 C24.2320434,17.2199867 23.2041615,18.2139085 23.2041615,19.4399733 C23.2041615,20.6660381 24.2320434,21.65996 25.5,21.65996 C26.7679566,21.65996 27.7958385,20.6660381 27.7958385,19.4399733 C27.7958385,18.2139085 26.7679566,17.2199867 25.5,17.2199867 Z" id="Combined-Shape" fill="#22C38F"></path>
        </g>
    </g>
</svg>
